<svg width="165" height="165" viewBox="0 0 165 165" fill="none" xmlns="http://www.w3.org/2000/svg">
<path opacity="0.5" d="M25.5555 160.41H119.667C124.392 160.41 128.222 156.579 128.222 151.854V32.6666L102.555 7L25.5555 7C20.8304 7 17 10.8305 17 15.5556L17 151.854C17 156.579 20.8305 160.41 25.5555 160.41Z" fill="#F2EEF6"/>
<path d="M102.557 7.00098L128.223 32.6676H102.557V7.00098Z" fill="#F2EEF6"/>
<path d="M75.9796 34.1475H33.6997C31.0054 34.1475 28.8213 36.2068 28.8213 38.7471C28.8213 41.2875 31.0054 43.3468 33.6997 43.3468H75.9796C78.6739 43.3468 80.858 41.2875 80.858 38.7471C80.858 36.2068 78.6739 34.1475 75.9796 34.1475Z" fill="#D3C5E0"/>
<path d="M59.8125 102H32.1875C30.4271 102 29 104.015 29 106.5C29 108.985 30.4271 111 32.1875 111H59.8125C61.5729 111 63 108.985 63 106.5C63 104.015 61.5729 102 59.8125 102Z" fill="#D3C5E0"/>
<path d="M105.25 54.0791H33.6997C31.0054 54.0791 28.8213 56.1384 28.8213 58.6788C28.8213 61.2191 31.0054 63.2785 33.6997 63.2785H105.25C107.945 63.2785 110.129 61.2191 110.129 58.6788C110.129 56.1384 107.945 54.0791 105.25 54.0791Z" fill="#D3C5E0"/>
<path d="M111 161C130.33 161 146 145.33 146 126C146 106.67 130.33 91 111 91C91.67 91 76 106.67 76 126C76 145.33 91.67 161 111 161Z" fill="#0B8E48"/>
<path d="M108.509 144.147C107.818 145.229 106.302 145.39 105.4 144.477L93.4056 132.336C92.6293 131.55 92.6371 130.284 93.4229 129.508L95.6709 127.287C96.4566 126.511 97.7228 126.518 98.4991 127.304L104.189 133.062C105.091 133.976 106.607 133.815 107.297 132.732L123.274 107.686C123.868 106.755 125.104 106.481 126.035 107.075L128.7 108.774C129.632 109.368 129.905 110.605 129.311 111.536L108.509 144.147Z" fill="white"/>
</svg>
