<svg width="93" height="32" viewBox="0 0 93 32" fill="none" xmlns="http://www.w3.org/2000/svg">
<g clip-path="url(#clip0_6687_2325)">
<path d="M5.13831 22.2145C7.99293 22.2145 9.73574 20.7258 9.73574 18.41C9.73574 16.7859 8.74414 15.6882 6.70084 15.2371L4.7026 14.7859C3.93636 14.6055 3.53071 14.3649 3.53071 13.9138C3.53071 13.4626 3.90631 13.1769 4.76271 13.1769C5.79937 13.1769 6.88113 13.6732 7.61732 14.3499L9.30003 11.8686C8.48873 11.1468 6.82104 10.5153 4.74767 10.5153C2.07334 10.5153 0.270436 11.8386 0.270436 14.0942C0.270436 15.7333 1.18692 16.9363 3.1551 17.3874L5.15332 17.8536C6.14493 18.0792 6.46044 18.3649 6.46044 18.7559C6.46044 19.2521 6.05479 19.5228 5.13831 19.5228C4.05655 19.5228 2.74945 19.0716 1.69774 18.1694L0 20.6356C0.781262 21.3574 2.58418 22.2145 5.13831 22.2145ZM13.0711 14.3198C14.1679 14.3198 15.0243 13.4626 15.0243 12.3649C15.0243 11.2671 14.1679 10.41 13.0711 10.41C11.9744 10.41 11.118 11.2671 11.118 12.3649C11.103 13.4626 11.9593 14.3198 13.0711 14.3198ZM10.9527 21.9889H15.1896L14.2881 14.9814C13.612 15.1769 12.5303 15.1769 11.8542 14.9814L10.9527 21.9889ZM17.1728 21.9889H20.5533V15.9288C20.5533 14.4401 21.2745 13.5228 22.6716 13.5228C23.9939 13.5228 24.6999 14.2897 24.6999 15.9288V21.9889H28.0804V15.0716C28.0804 12.0491 26.578 10.5002 23.9787 10.5002C22.4913 10.5002 21.3645 11.0867 20.5533 12.2295V11.5077C20.5533 11.0115 20.2679 10.7258 19.772 10.7258H17.1878V21.9889H17.1728ZM38.4022 11.4927V12.1694C37.6358 11.0265 36.419 10.4852 34.9766 10.4852C32.2572 10.4852 29.8833 12.8762 29.8833 16.0792C29.8833 19.2822 32.2422 21.6732 34.9766 21.6732C36.419 21.6732 37.5907 21.222 38.4022 20.2145V20.9363C38.4022 22.4701 37.3954 23.5679 35.6525 23.5679C34.1051 23.5679 32.9031 22.9213 32.1669 22.1995L30.4091 24.816C31.536 25.8235 33.3989 26.41 35.6525 26.41C39.0331 26.41 41.7825 24.7258 41.7825 20.4852V10.7258H39.1984C38.6876 10.7108 38.4022 10.9965 38.4022 11.4927ZM35.8779 18.6957C34.4658 18.6957 33.3088 17.5529 33.3088 16.0792C33.3088 14.6205 34.4508 13.4626 35.8779 13.4626C37.4106 13.4626 38.5073 14.6055 38.5073 16.0792C38.5073 17.5378 37.4106 18.6957 35.8779 18.6957ZM51.2628 22.2145C54.1926 22.2145 56.5515 19.8235 56.5515 16.3499C56.5515 12.8762 54.1926 10.4852 51.2628 10.4852C49.7304 10.4852 48.4683 11.0265 47.6421 12.1694V11.4927C47.6421 10.9965 47.3566 10.7108 46.8608 10.7108H44.2765V26.1393H47.6571V20.7559C48.5134 21.7634 49.7304 22.2145 51.2628 22.2145ZM50.3615 19.2371C48.7688 19.2371 47.5218 18.0491 47.5218 16.3499C47.5218 14.6656 48.7538 13.4626 50.3615 13.4626C51.939 13.4626 53.1259 14.6506 53.1259 16.3499C53.1409 18.0341 51.939 19.2371 50.3615 19.2371ZM63.2974 22.2145C64.8298 22.2145 66.0919 21.6732 66.9181 20.5303V21.9889H70.3137V10.7108H67.7296C67.2338 10.7108 66.9481 10.9965 66.9481 11.4927V12.1694C66.1219 11.0265 64.8599 10.4852 63.3274 10.4852C60.3976 10.4852 58.0389 12.8762 58.0389 16.3499C58.0389 19.8235 60.3676 22.2145 63.2974 22.2145ZM64.1987 19.2371C62.6212 19.2371 61.4343 18.0491 61.4343 16.3499C61.4343 14.6656 62.6212 13.4626 64.1987 13.4626C65.7914 13.4626 67.0384 14.6506 67.0384 16.3499C67.0384 18.0341 65.8064 19.2371 64.1987 19.2371ZM77.1648 22.2145C80.0194 22.2145 81.7622 20.7258 81.7622 18.41C81.7622 16.7859 80.7706 15.6882 78.7273 15.2371L76.7291 14.7859C75.9629 14.6055 75.5571 14.3649 75.5571 13.9138C75.5571 13.4626 75.9328 13.1769 76.7891 13.1769C77.8258 13.1769 78.9077 13.6732 79.6439 14.3499L81.3264 11.8686C80.5152 11.1468 78.8474 10.5153 76.7741 10.5153C74.0998 10.5153 72.2969 11.8386 72.2969 14.0942C72.2969 15.7333 73.2134 16.9363 75.1816 17.3874L77.1798 17.8536C78.1715 18.0792 78.4869 18.3649 78.4869 18.7559C78.4869 19.2521 78.0812 19.5228 77.1648 19.5228C76.083 19.5228 74.7759 19.0716 73.7243 18.1694L72.0415 20.6506C72.8077 21.3574 74.6106 22.2145 77.1648 22.2145ZM87.8471 22.2145C90.7016 22.2145 92.4444 20.7258 92.4444 18.41C92.4444 16.7859 91.4528 15.6882 89.4096 15.2371L87.4114 14.7859C86.6451 14.6055 86.2394 14.3649 86.2394 13.9138C86.2394 13.4626 86.6151 13.1769 87.4714 13.1769C88.508 13.1769 89.5899 13.6732 90.3261 14.3499L92.0087 11.8686C91.1974 11.1468 89.5297 10.5153 87.4564 10.5153C84.782 10.5153 82.9792 11.8386 82.9792 14.0942C82.9792 15.7333 83.8957 16.9363 85.8639 17.3874L87.8621 17.8536C88.8537 18.0792 89.1692 18.3649 89.1692 18.7559C89.1692 19.2521 88.7635 19.5228 87.8471 19.5228C86.7652 19.5228 85.4582 19.0716 84.4065 18.1694L82.7238 20.6506C83.49 21.3574 85.2928 22.2145 87.8471 22.2145Z" fill="white"/>
</g>
<defs>
<clipPath id="clip0_6687_2325">
<rect width="92.4444" height="32" fill="white"/>
</clipPath>
</defs>
</svg>
